<mxfile host="app.diagrams.net" modified="2022-02-17T19:19:46.852Z" agent="5.0 (Windows NT 10.0; Win64; x64) AppleWebKit/537.36 (KHTML, like Gecko) Chrome/98.0.4758.80 Safari/537.36 Edg/98.0.1108.50" etag="GAmP-wjr3DaZxPQgxzoc" version="14.9.8" type="github">
  <diagram id="C5RBs43oDa-KdzZeNtuy" name="Page-1">
    <mxGraphModel dx="984" dy="393" grid="1" gridSize="10" guides="1" tooltips="1" connect="1" arrows="1" fold="1" page="1" pageScale="1" pageWidth="827" pageHeight="1169" math="0" shadow="0">
      <root>
        <mxCell id="WIyWlLk6GJQsqaUBKTNV-0" />
        <mxCell id="WIyWlLk6GJQsqaUBKTNV-1" parent="WIyWlLk6GJQsqaUBKTNV-0" />
        <mxCell id="khYm6_Hr3ZgaZkHmtspg-2" value="User 1" style="rounded=1;whiteSpace=wrap;html=1;" parent="WIyWlLk6GJQsqaUBKTNV-1" vertex="1">
          <mxGeometry x="100" y="160" width="120" height="40" as="geometry" />
        </mxCell>
        <mxCell id="khYm6_Hr3ZgaZkHmtspg-5" value="User 2" style="rounded=1;whiteSpace=wrap;html=1;" parent="WIyWlLk6GJQsqaUBKTNV-1" vertex="1">
          <mxGeometry x="500" y="160" width="120" height="40" as="geometry" />
        </mxCell>
        <mxCell id="khYm6_Hr3ZgaZkHmtspg-11" value="Request Notes" style="text;html=1;strokeColor=none;fillColor=none;align=center;verticalAlign=middle;whiteSpace=wrap;rounded=0;" parent="WIyWlLk6GJQsqaUBKTNV-1" vertex="1">
          <mxGeometry x="160" y="300" width="100" height="20" as="geometry" />
        </mxCell>
        <mxCell id="khYm6_Hr3ZgaZkHmtspg-12" value="Firebase" style="rounded=1;whiteSpace=wrap;html=1;" parent="WIyWlLk6GJQsqaUBKTNV-1" vertex="1">
          <mxGeometry x="112.5" y="350" width="95" height="40" as="geometry" />
        </mxCell>
        <mxCell id="khYm6_Hr3ZgaZkHmtspg-13" value="" style="endArrow=classic;html=1;exitX=0.5;exitY=1;exitDx=0;exitDy=0;entryX=0.5;entryY=0;entryDx=0;entryDy=0;" parent="WIyWlLk6GJQsqaUBKTNV-1" source="khYm6_Hr3ZgaZkHmtspg-2" target="khYm6_Hr3ZgaZkHmtspg-12" edge="1">
          <mxGeometry width="50" height="50" relative="1" as="geometry">
            <mxPoint x="390" y="270" as="sourcePoint" />
            <mxPoint x="440" y="220" as="targetPoint" />
          </mxGeometry>
        </mxCell>
        <mxCell id="khYm6_Hr3ZgaZkHmtspg-14" value="" style="endArrow=classic;html=1;exitX=0.5;exitY=1;exitDx=0;exitDy=0;" parent="WIyWlLk6GJQsqaUBKTNV-1" source="khYm6_Hr3ZgaZkHmtspg-5" target="khYm6_Hr3ZgaZkHmtspg-24" edge="1">
          <mxGeometry width="50" height="50" relative="1" as="geometry">
            <mxPoint x="390" y="270" as="sourcePoint" />
            <mxPoint x="560" y="330" as="targetPoint" />
          </mxGeometry>
        </mxCell>
        <mxCell id="khYm6_Hr3ZgaZkHmtspg-18" value="Web Browser" style="rounded=0;whiteSpace=wrap;html=1;" parent="WIyWlLk6GJQsqaUBKTNV-1" vertex="1">
          <mxGeometry x="80" y="220" width="560" height="30" as="geometry" />
        </mxCell>
        <mxCell id="khYm6_Hr3ZgaZkHmtspg-21" value="" style="endArrow=classic;html=1;exitX=1;exitY=0.5;exitDx=0;exitDy=0;entryX=0.392;entryY=1.073;entryDx=0;entryDy=0;entryPerimeter=0;" parent="WIyWlLk6GJQsqaUBKTNV-1" source="khYm6_Hr3ZgaZkHmtspg-12" target="khYm6_Hr3ZgaZkHmtspg-18" edge="1">
          <mxGeometry width="50" height="50" relative="1" as="geometry">
            <mxPoint x="390" y="330" as="sourcePoint" />
            <mxPoint x="300" y="260" as="targetPoint" />
            <Array as="points">
              <mxPoint x="300" y="370" />
            </Array>
          </mxGeometry>
        </mxCell>
        <mxCell id="khYm6_Hr3ZgaZkHmtspg-22" value="Send Response&amp;nbsp;" style="text;html=1;strokeColor=none;fillColor=none;align=center;verticalAlign=middle;whiteSpace=wrap;rounded=0;" parent="WIyWlLk6GJQsqaUBKTNV-1" vertex="1">
          <mxGeometry x="260" y="380" width="40" height="20" as="geometry" />
        </mxCell>
        <mxCell id="khYm6_Hr3ZgaZkHmtspg-23" value="Send Response&amp;nbsp;" style="text;html=1;strokeColor=none;fillColor=none;align=center;verticalAlign=middle;whiteSpace=wrap;rounded=0;" parent="WIyWlLk6GJQsqaUBKTNV-1" vertex="1">
          <mxGeometry x="320" y="300" width="40" height="20" as="geometry" />
        </mxCell>
        <mxCell id="khYm6_Hr3ZgaZkHmtspg-24" value="Store data in firebase" style="rounded=1;whiteSpace=wrap;html=1;" parent="WIyWlLk6GJQsqaUBKTNV-1" vertex="1">
          <mxGeometry x="500" y="350" width="120" height="40" as="geometry" />
        </mxCell>
        <mxCell id="khYm6_Hr3ZgaZkHmtspg-26" value="" style="endArrow=classic;html=1;exitX=0;exitY=0.5;exitDx=0;exitDy=0;" parent="WIyWlLk6GJQsqaUBKTNV-1" source="khYm6_Hr3ZgaZkHmtspg-24" edge="1">
          <mxGeometry width="50" height="50" relative="1" as="geometry">
            <mxPoint x="390" y="310" as="sourcePoint" />
            <mxPoint x="440" y="253" as="targetPoint" />
            <Array as="points">
              <mxPoint x="440" y="370" />
            </Array>
          </mxGeometry>
        </mxCell>
        <mxCell id="khYm6_Hr3ZgaZkHmtspg-27" value="Send conformation message" style="text;html=1;strokeColor=none;fillColor=none;align=center;verticalAlign=middle;whiteSpace=wrap;rounded=0;" parent="WIyWlLk6GJQsqaUBKTNV-1" vertex="1">
          <mxGeometry x="460" y="300" width="40" height="20" as="geometry" />
        </mxCell>
        <mxCell id="khYm6_Hr3ZgaZkHmtspg-31" value="Upload Notes" style="text;html=1;strokeColor=none;fillColor=none;align=center;verticalAlign=middle;whiteSpace=wrap;rounded=0;" parent="WIyWlLk6GJQsqaUBKTNV-1" vertex="1">
          <mxGeometry x="560" y="300" width="100" height="20" as="geometry" />
        </mxCell>
        <mxCell id="Ci68w_609lXC2WcZFcvS-0" value="Google Drive" style="rounded=1;whiteSpace=wrap;html=1;" vertex="1" parent="WIyWlLk6GJQsqaUBKTNV-1">
          <mxGeometry x="100" y="430" width="120" height="40" as="geometry" />
        </mxCell>
        <mxCell id="Ci68w_609lXC2WcZFcvS-1" value="" style="endArrow=classic;html=1;exitX=0.5;exitY=1;exitDx=0;exitDy=0;entryX=0.5;entryY=0;entryDx=0;entryDy=0;" edge="1" parent="WIyWlLk6GJQsqaUBKTNV-1" source="khYm6_Hr3ZgaZkHmtspg-12" target="Ci68w_609lXC2WcZFcvS-0">
          <mxGeometry width="50" height="50" relative="1" as="geometry">
            <mxPoint x="390" y="360" as="sourcePoint" />
            <mxPoint x="440" y="310" as="targetPoint" />
          </mxGeometry>
        </mxCell>
        <mxCell id="Ci68w_609lXC2WcZFcvS-2" value="Request Notes PDF" style="text;html=1;strokeColor=none;fillColor=none;align=center;verticalAlign=middle;whiteSpace=wrap;rounded=0;" vertex="1" parent="WIyWlLk6GJQsqaUBKTNV-1">
          <mxGeometry x="40" y="400" width="120" height="20" as="geometry" />
        </mxCell>
        <mxCell id="Ci68w_609lXC2WcZFcvS-4" value="Google Drive" style="rounded=1;whiteSpace=wrap;html=1;" vertex="1" parent="WIyWlLk6GJQsqaUBKTNV-1">
          <mxGeometry x="500" y="430" width="120" height="40" as="geometry" />
        </mxCell>
        <mxCell id="Ci68w_609lXC2WcZFcvS-5" value="" style="endArrow=classic;html=1;exitX=0.5;exitY=1;exitDx=0;exitDy=0;" edge="1" parent="WIyWlLk6GJQsqaUBKTNV-1" source="khYm6_Hr3ZgaZkHmtspg-24" target="Ci68w_609lXC2WcZFcvS-4">
          <mxGeometry width="50" height="50" relative="1" as="geometry">
            <mxPoint x="390" y="340" as="sourcePoint" />
            <mxPoint x="440" y="290" as="targetPoint" />
          </mxGeometry>
        </mxCell>
        <mxCell id="Ci68w_609lXC2WcZFcvS-8" value="" style="endArrow=classic;html=1;entryX=0.646;entryY=1.077;entryDx=0;entryDy=0;entryPerimeter=0;" edge="1" parent="WIyWlLk6GJQsqaUBKTNV-1" target="khYm6_Hr3ZgaZkHmtspg-12">
          <mxGeometry width="50" height="50" relative="1" as="geometry">
            <mxPoint x="174" y="431" as="sourcePoint" />
            <mxPoint x="440" y="290" as="targetPoint" />
          </mxGeometry>
        </mxCell>
        <mxCell id="Ci68w_609lXC2WcZFcvS-9" value="" style="endArrow=classic;html=1;exitX=0.335;exitY=-0.036;exitDx=0;exitDy=0;exitPerimeter=0;" edge="1" parent="WIyWlLk6GJQsqaUBKTNV-1" source="Ci68w_609lXC2WcZFcvS-4">
          <mxGeometry width="50" height="50" relative="1" as="geometry">
            <mxPoint x="530" y="420" as="sourcePoint" />
            <mxPoint x="538" y="390" as="targetPoint" />
          </mxGeometry>
        </mxCell>
        <mxCell id="Ci68w_609lXC2WcZFcvS-10" value="Store PDF in Drive" style="text;html=1;strokeColor=none;fillColor=none;align=center;verticalAlign=middle;whiteSpace=wrap;rounded=0;" vertex="1" parent="WIyWlLk6GJQsqaUBKTNV-1">
          <mxGeometry x="560" y="400" width="130" height="20" as="geometry" />
        </mxCell>
      </root>
    </mxGraphModel>
  </diagram>
</mxfile>
